<svg width="29" height="50" viewBox="0 0 29 50" fill="none" xmlns="http://www.w3.org/2000/svg">
<path d="M28.7614 24.9135C28.7338 23.9467 28.3747 23.118 27.6289 22.3722L6.13839 1.35128C5.50307 0.743583 4.75725 0.412109 3.8457 0.412109C1.99498 0.412109 0.558594 1.84849 0.558594 3.69922C0.558594 4.58315 0.91769 5.41183 1.55301 6.04715L20.889 24.9135L1.55301 43.7799C0.91769 44.4152 0.558594 45.2162 0.558594 46.1278C0.558594 47.9785 1.99498 49.4149 3.8457 49.4149C4.72963 49.4149 5.50307 49.0834 6.13839 48.4757L27.6289 27.4272C28.4023 26.709 28.7614 25.8803 28.7614 24.9135Z" fill="#1C1C1E"/>
</svg>
