<svg width="79" height="45" viewBox="0 0 79 45" fill="none" xmlns="http://www.w3.org/2000/svg">
<path d="M3.56056 44.836H75.4394C77.3071 44.836 78.8546 43.2885 78.8546 41.4208C78.8546 39.5265 77.3071 37.979 75.4394 37.979H69.8097V6.52199C69.8097 2.33306 67.5151 0.11853 63.3529 0.11853H15.6471C11.6449 0.11853 9.19027 2.33306 9.19027 6.52199V37.979H3.56056C1.69289 37.979 0.145386 39.5265 0.145386 41.4208C0.145386 43.2885 1.69289 44.836 3.56056 44.836ZM14.4998 7.93609C14.4998 6.2285 15.3269 5.42807 17.0078 5.42807H61.9921C63.6464 5.42807 64.5002 6.2285 64.5002 7.93609V37.979H14.4998V7.93609Z" fill="white"/>
</svg>
