<svg width="63" height="36" viewBox="0 0 63 36" fill="none" xmlns="http://www.w3.org/2000/svg">
<path d="M31.5198 17.5442C35.8506 17.5442 39.509 13.7078 39.509 8.74414C39.509 3.89917 35.8308 0.181396 31.5198 0.181396C27.2087 0.181396 23.5305 3.9585 23.5503 8.78369C23.5503 13.7078 27.189 17.5442 31.5198 17.5442ZM8.61987 17.999C12.397 17.999 15.5808 14.6372 15.5808 10.3262C15.5808 6.09424 12.3772 2.87085 8.61987 2.87085C4.88232 2.87085 1.65893 6.15356 1.67871 10.3657C1.67871 14.6372 4.86255 17.999 8.61987 17.999ZM54.3603 17.999C58.1177 17.999 61.3015 14.6372 61.3015 10.3657C61.3213 6.15356 58.0979 2.87085 54.3603 2.87085C50.6228 2.87085 47.3994 6.09424 47.3994 10.3262C47.3994 14.6372 50.603 17.999 54.3603 17.999ZM-2.27637 35.9551H12.5552C10.4392 32.9294 12.7332 26.9573 17.2024 23.4373C15.0271 22.0332 12.1794 21.0049 8.61987 21.0049C-0.219727 21.0049 -5.93481 27.511 -5.93481 32.8701C-5.93481 34.8279 -4.94605 35.9551 -2.27637 35.9551ZM65.2566 35.9551C67.9263 35.9551 68.915 34.8279 68.915 32.8701C68.915 27.511 63.1999 21.0049 54.3603 21.0049C50.8008 21.0049 47.9729 22.0332 45.7976 23.4373C50.2668 26.9573 52.5608 32.9294 50.4448 35.9551H65.2566ZM19.1799 35.9353H43.8398C47.1028 35.9353 48.23 34.9465 48.23 33.1272C48.23 28.0449 41.7634 21.0444 31.5198 21.0444C21.2563 21.0444 14.8096 28.0449 14.8096 33.1272C14.8096 34.9465 15.9368 35.9353 19.1799 35.9353Z" fill="white"/>
</svg>
