<svg width="36" height="38" viewBox="0 0 36 38" fill="none" xmlns="http://www.w3.org/2000/svg">
<g filter="url(#filter0_d_18_1494)">
<circle cx="19" cy="15" r="15" fill="#383737"/>
<path fill-rule="evenodd" clip-rule="evenodd" d="M14.7484 4.74937C15.8481 4.69875 16.1988 4.6875 19 4.6875C21.8012 4.6875 22.1519 4.69969 23.2506 4.74937C24.3494 4.79906 25.0994 4.97438 25.7556 5.22844C26.4428 5.48813 27.0662 5.89406 27.5819 6.41906C28.1069 6.93375 28.5119 7.55625 28.7706 8.24438C29.0256 8.90063 29.2 9.65063 29.2506 10.7475C29.3013 11.8491 29.3125 12.1997 29.3125 15C29.3125 17.8012 29.3003 18.1519 29.2506 19.2516C29.2009 20.3484 29.0256 21.0984 28.7706 21.7547C28.5119 22.4429 28.1062 23.0664 27.5819 23.5819C27.0662 24.1069 26.4428 24.5119 25.7556 24.7706C25.0994 25.0256 24.3494 25.2 23.2525 25.2506C22.1519 25.3013 21.8012 25.3125 19 25.3125C16.1988 25.3125 15.8481 25.3003 14.7484 25.2506C13.6516 25.2009 12.9016 25.0256 12.2453 24.7706C11.5571 24.5118 10.9336 24.1062 10.4181 23.5819C9.89348 23.0669 9.48748 22.4436 9.22844 21.7556C8.97438 21.0994 8.8 20.3494 8.74937 19.2525C8.69875 18.1509 8.6875 17.8003 8.6875 15C8.6875 12.1988 8.69969 11.8481 8.74937 10.7494C8.79906 9.65063 8.97438 8.90063 9.22844 8.24438C9.48787 7.55633 9.89417 6.93311 10.4191 6.41812C10.9338 5.89359 11.5567 5.4876 12.2444 5.22844C12.9006 4.97438 13.6506 4.8 14.7475 4.74937H14.7484ZM23.1672 6.60563C22.0797 6.55594 21.7534 6.54563 19 6.54563C16.2466 6.54563 15.9203 6.55594 14.8328 6.60563C13.8269 6.65156 13.2813 6.81937 12.9175 6.96094C12.4366 7.14844 12.0925 7.37063 11.7316 7.73156C11.3894 8.06442 11.1261 8.46964 10.9609 8.9175C10.8194 9.28125 10.6516 9.82687 10.6056 10.8328C10.5559 11.9203 10.5456 12.2466 10.5456 15C10.5456 17.7534 10.5559 18.0797 10.6056 19.1672C10.6516 20.1731 10.8194 20.7188 10.9609 21.0825C11.1259 21.5297 11.3894 21.9356 11.7316 22.2684C12.0644 22.6106 12.4703 22.8741 12.9175 23.0391C13.2813 23.1806 13.8269 23.3484 14.8328 23.3944C15.9203 23.4441 16.2456 23.4544 19 23.4544C21.7544 23.4544 22.0797 23.4441 23.1672 23.3944C24.1731 23.3484 24.7188 23.1806 25.0825 23.0391C25.5634 22.8516 25.9075 22.6294 26.2684 22.2684C26.6106 21.9356 26.8741 21.5297 27.0391 21.0825C27.1806 20.7188 27.3484 20.1731 27.3944 19.1672C27.4441 18.0797 27.4544 17.7534 27.4544 15C27.4544 12.2466 27.4441 11.9203 27.3944 10.8328C27.3484 9.82687 27.1806 9.28125 27.0391 8.9175C26.8516 8.43656 26.6294 8.0925 26.2684 7.73156C25.9356 7.38944 25.5303 7.12614 25.0825 6.96094C24.7188 6.81937 24.1731 6.65156 23.1672 6.60563V6.60563ZM17.6828 18.1791C18.4184 18.4853 19.2375 18.5266 20.0002 18.296C20.7629 18.0654 21.4219 17.5771 21.8646 16.9146C22.3073 16.2521 22.5063 15.4564 22.4275 14.6635C22.3488 13.8706 21.9972 13.1297 21.4328 12.5672C21.073 12.2076 20.638 11.9323 20.1591 11.7611C19.6801 11.5898 19.1692 11.5269 18.663 11.5768C18.1568 11.6268 17.668 11.7883 17.2317 12.0498C16.7954 12.3113 16.4226 12.6663 16.14 13.0892C15.8574 13.5121 15.6721 13.9925 15.5974 14.4956C15.5227 14.9987 15.5605 15.5121 15.708 15.9989C15.8556 16.4857 16.1092 16.9337 16.4507 17.3107C16.7922 17.6877 17.213 17.9842 17.6828 18.1791ZM15.2519 11.2519C15.7441 10.7597 16.3284 10.3692 16.9715 10.1028C17.6146 9.83646 18.3039 9.69935 19 9.69935C19.6961 9.69935 20.3854 9.83646 21.0285 10.1028C21.6716 10.3692 22.2559 10.7597 22.7481 11.2519C23.2403 11.7441 23.6308 12.3284 23.8972 12.9715C24.1635 13.6146 24.3006 14.3039 24.3006 15C24.3006 15.6961 24.1635 16.3854 23.8972 17.0285C23.6308 17.6716 23.2403 18.2559 22.7481 18.7481C21.7541 19.7422 20.4058 20.3006 19 20.3006C17.5942 20.3006 16.2459 19.7422 15.2519 18.7481C14.2578 17.7541 13.6994 16.4058 13.6994 15C13.6994 13.5942 14.2578 12.2459 15.2519 11.2519V11.2519ZM25.4763 10.4888C25.5982 10.3737 25.6959 10.2353 25.7634 10.0819C25.8309 9.92838 25.867 9.76291 25.8695 9.59525C25.8719 9.42759 25.8407 9.26114 25.7776 9.10576C25.7146 8.95038 25.621 8.80923 25.5025 8.69066C25.3839 8.57209 25.2427 8.47852 25.0874 8.41549C24.932 8.35245 24.7655 8.32123 24.5979 8.32367C24.4302 8.32612 24.2648 8.36218 24.1113 8.42972C23.9578 8.49726 23.8194 8.5949 23.7044 8.71687C23.4806 8.95409 23.3581 9.26918 23.3628 9.59525C23.3676 9.92132 23.4992 10.2327 23.7298 10.4633C23.9604 10.6939 24.2718 10.8255 24.5979 10.8303C24.9239 10.835 25.239 10.7125 25.4763 10.4888V10.4888Z" fill="white"/>
</g>
<defs>
<filter id="filter0_d_18_1494" x="0" y="0" width="38" height="38" filterUnits="userSpaceOnUse" color-interpolation-filters="sRGB">
<feFlood flood-opacity="0" result="BackgroundImageFix"/>
<feColorMatrix in="SourceAlpha" type="matrix" values="0 0 0 0 0 0 0 0 0 0 0 0 0 0 0 0 0 0 127 0" result="hardAlpha"/>
<feOffset dy="4"/>
<feGaussianBlur stdDeviation="2"/>
<feComposite in2="hardAlpha" operator="out"/>
<feColorMatrix type="matrix" values="0 0 0 0 0 0 0 0 0 0 0 0 0 0 0 0 0 0 0.25 0"/>
<feBlend mode="normal" in2="BackgroundImageFix" result="effect1_dropShadow_18_1494"/>
<feBlend mode="normal" in="SourceGraphic" in2="effect1_dropShadow_18_1494" result="shape"/>
</filter>
</defs>
</svg>
