<svg width="62" height="57" viewBox="0 0 62 57" fill="none" xmlns="http://www.w3.org/2000/svg">
<path d="M23.7948 9.66821C25.6696 8.94695 27 7.12885 27 5C27 2.23858 24.7614 0 22 0C19.2386 0 17 2.23858 17 5C17 7.55185 18.9117 9.65721 21.3811 9.96207L19.1513 28L8.4022 18.6641C9.38506 17.751 10 16.4473 10 15C10 12.2386 7.76142 10 5 10C2.23858 10 0 12.2386 0 15C0 17.7614 2.23858 20 5 20C5.48611 20 5.95602 19.9306 6.40036 19.8013L12 39L17.7906 48.4756L12 49.5V57L50.0769 57V49.5L44.2119 48.4714L50 39L55.5996 19.8013C56.044 19.9306 56.5139 20 57 20C59.7614 20 62 17.7614 62 15C62 12.2386 59.7614 10 57 10C54.2386 10 52 12.2386 52 15C52 16.4473 52.6149 17.751 53.5978 18.6641L42.8487 28L40.6189 9.96207C43.0883 9.65721 45 7.55185 45 5C45 2.23858 42.7614 0 40 0C37.2386 0 35 2.23858 35 5C35 7.12885 36.3304 8.94695 38.2052 9.66821L31 26L23.7948 9.66821Z" fill="#F4F7FA"/>
</svg>
