<svg width="47" height="59" viewBox="0 0 47 59" fill="none" xmlns="http://www.w3.org/2000/svg">
<path d="M9.19899 58.3729H43.9111C45.3252 58.3729 46.4191 57.279 46.4191 55.8649C46.4191 54.6642 45.592 53.7837 44.5781 53.3035C41.2963 51.836 40.656 47.3002 43.9911 44.1252C45.3519 42.9245 46.3924 41.5905 46.3924 38.8957V9.35974C46.3924 3.59663 43.4308 0.581665 37.6944 0.581665H9.25235C3.5426 0.581665 0.554321 3.56995 0.554321 9.35974V49.6749C0.554321 55.3846 3.5426 58.3729 9.19899 58.3729ZM8.85214 40.7901C7.97166 40.7901 7.22459 40.0697 7.22459 39.1625V6.69163C7.22459 5.78448 7.97166 5.06409 8.85214 5.06409C9.73261 5.06409 10.4797 5.78448 10.4797 6.69163V39.1625C10.4797 40.0697 9.73261 40.7901 8.85214 40.7901ZM17.9237 18.0578C16.8565 18.0578 15.9226 17.1506 15.9226 16.0834C15.9226 14.9628 16.8565 14.0823 17.9237 14.0823H37.2408C38.3347 14.0823 39.2419 14.9628 39.2419 16.0834C39.2419 17.1506 38.3347 18.0578 37.2408 18.0578H17.9237ZM17.9237 25.7953C16.8565 25.7953 15.9226 24.9148 15.9226 23.7942C15.9226 22.727 16.8565 21.8198 17.9237 21.8198H32.5983C33.6922 21.8198 34.5994 22.727 34.5994 23.7942C34.5994 24.9148 33.6922 25.7953 32.5983 25.7953H17.9237ZM9.91938 53.3568C7.06451 53.3568 5.57036 51.7293 5.57036 49.2213C5.57036 46.7933 7.27795 45.1124 10.1061 45.1124H36.7339C37.0274 45.1124 37.3209 45.0857 37.5877 45.0323C36.2536 47.8605 36.4137 50.9289 37.8545 53.3568H9.91938Z" fill="white"/>
</svg>
