<svg width="25" height="25" viewBox="0 0 25 25" fill="none" xmlns="http://www.w3.org/2000/svg">
<path d="M15.5363 11.3886C15.8251 11.3886 16.0887 11.2881 16.3022 11.0747L21.3622 6.00213L23.0823 4.13131L22.8689 7.38327V9.1913C22.8689 9.76887 23.3083 10.2083 23.8984 10.2334C24.4886 10.246 24.9782 9.79398 24.9782 9.20386V2.13494C24.9782 1.30626 24.5513 0.854248 23.7101 0.854248H16.6035C16.0134 0.854248 15.5488 1.34392 15.5739 1.9466C15.5865 2.53673 16.0385 2.96362 16.6035 2.96362H18.4618L21.7514 2.76273L19.8429 4.48288L14.7829 9.54286C14.5444 9.78142 14.4314 10.0577 14.4314 10.3715C14.4314 10.9491 14.9085 11.3886 15.5363 11.3886ZM7.40011 18.2691C11.1041 21.9857 15.6116 24.8484 19.2905 24.8484C20.9353 24.8484 22.3792 24.2708 23.5343 22.9901C24.2123 22.2368 24.6267 21.3704 24.6267 20.5041C24.6267 19.8386 24.363 19.1857 23.7227 18.7337L19.8555 15.9965C19.2528 15.5697 18.7506 15.3688 18.2985 15.3688C17.7084 15.3688 17.1811 15.6952 16.6035 16.2728L15.6869 17.1768C15.5488 17.3149 15.373 17.3777 15.2098 17.3777C15.0089 17.3777 14.8206 17.3024 14.6825 17.227C13.904 16.8001 12.548 15.645 11.2924 14.3894C10.0368 13.1338 8.86914 11.7904 8.4548 10.9868C8.37946 10.8487 8.30413 10.6729 8.30413 10.472C8.30413 10.3213 8.35435 10.1455 8.50502 9.99487L9.40904 9.0783C9.97405 8.48818 10.3131 7.97339 10.3131 7.38327C10.3131 6.9187 10.1122 6.41647 9.68527 5.81379L6.96066 1.99683C6.49609 1.34392 5.83064 1.0677 5.12751 1.0677C4.27372 1.0677 3.41992 1.44437 2.66657 2.16005C1.42355 3.3403 0.871094 4.80933 0.871094 6.42903C0.871094 10.1079 3.68359 14.5652 7.40011 18.2691Z" fill="black"/>
</svg>
