<svg width="30" height="23" viewBox="0 0 30 23" fill="none" xmlns="http://www.w3.org/2000/svg">
<path d="M15.0126 12.8244C15.5525 12.8244 16.0296 12.5733 16.5946 12.0083L27.5433 1.14753C27.0536 0.708078 26.1873 0.494629 24.9694 0.494629H4.71685C3.63705 0.494629 2.87115 0.695522 2.43169 1.09731L13.4306 12.0083C13.983 12.5733 14.4727 12.8244 15.0126 12.8244ZM1.22634 20.4207L10.254 11.481L1.23889 2.57889C1.01289 2.98068 0.887329 3.64614 0.887329 4.58782V18.462C0.887329 19.3786 1.00033 20.0315 1.22634 20.4207ZM28.7738 20.4081C28.9872 20.0189 29.1002 19.366 29.1002 18.462V4.58782C29.1002 3.67125 28.9747 3.00579 28.7487 2.61656L19.7713 11.481L28.7738 20.4081ZM5.01819 22.5552H25.2707C26.3756 22.5552 27.1541 22.3417 27.6061 21.9274L18.4152 12.7993L17.6368 13.5652C16.7704 14.4065 15.9417 14.8082 15.0126 14.8082C14.0835 14.8082 13.2422 14.4065 12.3759 13.5652L11.5974 12.7993L2.41914 21.9023C2.92137 22.3292 3.80028 22.5552 5.01819 22.5552Z" fill="#1C1C1E"/>
</svg>
