<svg width="49" height="44" viewBox="0 0 49 44" fill="none" xmlns="http://www.w3.org/2000/svg">
<path d="M0.314697 20.7333C0.314697 21.7617 1.10571 22.6516 2.37134 22.6516C2.98438 22.6516 3.53809 22.3154 4.03247 21.9199L23.6497 5.44696C24.2034 4.97235 24.8362 4.97235 25.3899 5.44696L44.9873 21.9199C45.4619 22.3154 46.0156 22.6516 46.6287 22.6516C47.7954 22.6516 48.6853 21.9199 48.6853 20.7729C48.6853 20.1005 48.4282 19.5666 47.9141 19.1315L42.3572 14.4645V6.23798C42.3572 5.34808 41.7837 4.79437 40.8938 4.79437H38.1648C37.2947 4.79437 36.7014 5.34808 36.7014 6.23798V9.69867L27.3279 1.82806C25.6074 0.38446 23.4321 0.38446 21.7117 1.82806L1.10571 19.1315C0.571777 19.5666 0.314697 20.1599 0.314697 20.7333ZM6.7417 38.5114C6.7417 41.3591 8.52148 43.0795 11.468 43.0795H37.5518C40.4785 43.0795 42.2781 41.3591 42.2781 38.5114V23.4821L25.7261 9.61957C24.9548 8.9472 24.0254 8.96698 23.2739 9.61957L6.7417 23.4821V38.5114ZM29.7009 39.3618H19.3188V26.7055C19.3188 25.7761 19.9319 25.1828 20.8613 25.1828H28.1782C29.1077 25.1828 29.7009 25.7761 29.7009 26.7055V39.3618Z" fill="white"/>
</svg>
