<svg width="74" height="50" viewBox="0 0 74 50" fill="none" xmlns="http://www.w3.org/2000/svg">
<path d="M51.4542 24.2104C57.2974 24.2104 62.2334 19.0343 62.2334 12.3373C62.2334 5.80047 57.2707 0.784424 51.4542 0.784424C45.6644 0.784424 40.6751 5.88051 40.7018 12.3907C40.7018 19.0343 45.6111 24.2104 51.4542 24.2104ZM20.6109 24.8241C25.707 24.8241 30.0027 20.2883 30.0027 14.4718C30.0027 8.76207 25.6536 4.41305 20.6109 4.41305C15.5682 4.41305 11.2192 8.84211 11.2458 14.5252C11.2458 20.2883 15.5415 24.8241 20.6109 24.8241ZM5.90963 49.0505H25.9204C23.0656 44.9683 26.1339 36.9106 32.1638 32.1614C29.2289 30.267 25.4135 28.8796 20.6109 28.8796C8.68447 28.8796 0.973633 37.6577 0.973633 44.8883C0.973633 47.5297 2.30769 49.0505 5.90963 49.0505ZM34.8319 49.0238H68.0766C72.4789 49.0238 73.9998 47.6898 73.9998 45.2351C73.9998 38.3781 65.275 28.933 51.4542 28.933C37.6068 28.933 28.9087 38.3781 28.9087 45.2351C28.9087 47.6898 30.4295 49.0238 34.8319 49.0238Z" fill="white"/>
</svg>
