<svg width="38" height="38" viewBox="0 0 38 38" fill="none" xmlns="http://www.w3.org/2000/svg">
<g filter="url(#filter0_d_18_1493)">
<circle cx="19" cy="15" r="15" fill="#383737"/>
<path d="M29.9744 8.61517C29.1916 8.96205 28.3506 9.19642 27.4666 9.30236C28.3787 8.75654 29.0612 7.89749 29.3866 6.88549C28.5295 7.39454 27.5916 7.75286 26.6134 7.94486C25.9557 7.24255 25.0844 6.77704 24.135 6.62062C23.1856 6.46419 22.211 6.6256 21.3627 7.07979C20.5144 7.53397 19.8398 8.25551 19.4436 9.1324C19.0474 10.0093 18.9518 10.9924 19.1716 11.9292C17.435 11.842 15.7362 11.3907 14.1854 10.6045C12.6346 9.81823 11.2664 8.7147 10.1697 7.36549C9.79469 8.01236 9.57906 8.76236 9.57906 9.56111C9.57864 10.2802 9.75572 10.9882 10.0946 11.6224C10.4334 12.2566 10.9236 12.7974 11.5216 13.1967C10.8281 13.1747 10.1499 12.9873 9.54344 12.6502V12.7064C9.54337 13.7149 9.89222 14.6924 10.5308 15.473C11.1694 16.2536 12.0583 16.7892 13.0469 16.9889C12.4035 17.163 11.7291 17.1887 11.0744 17.0639C11.3533 17.9317 11.8966 18.6905 12.6282 19.2342C13.3598 19.7778 14.243 20.0791 15.1544 20.0958C13.6073 21.3102 11.6968 21.969 9.73 21.9661C9.38161 21.9662 9.03351 21.9459 8.6875 21.9052C10.6839 23.1888 13.0078 23.87 15.3812 23.8674C23.4156 23.8674 27.8078 17.213 27.8078 11.4417C27.8078 11.2542 27.8031 11.0649 27.7947 10.8774C28.649 10.2595 29.3865 9.49445 29.9725 8.61799L29.9744 8.61517Z" fill="white"/>
</g>
<defs>
<filter id="filter0_d_18_1493" x="0" y="0" width="38" height="38" filterUnits="userSpaceOnUse" color-interpolation-filters="sRGB">
<feFlood flood-opacity="0" result="BackgroundImageFix"/>
<feColorMatrix in="SourceAlpha" type="matrix" values="0 0 0 0 0 0 0 0 0 0 0 0 0 0 0 0 0 0 127 0" result="hardAlpha"/>
<feOffset dy="4"/>
<feGaussianBlur stdDeviation="2"/>
<feComposite in2="hardAlpha" operator="out"/>
<feColorMatrix type="matrix" values="0 0 0 0 0 0 0 0 0 0 0 0 0 0 0 0 0 0 0.25 0"/>
<feBlend mode="normal" in2="BackgroundImageFix" result="effect1_dropShadow_18_1493"/>
<feBlend mode="normal" in="SourceGraphic" in2="effect1_dropShadow_18_1493" result="shape"/>
</filter>
</defs>
</svg>
